{
	"asset":{
		"generator":"Khronos glTF Blender I/O v4.1.63",
		"version":"2.0"
	},
	"scene":0,
	"scenes":[
		{
			"name":"Scene",
			"nodes":[
				4
			]
		}
	],
	"nodes":[
		{
			"mesh":0,
			"name":"Hand_Med_Medical_Hand_0"
		},
		{
			"children":[
				0
			],
			"name":"Hand_Med",
			"translation":[
				0,
				0,
				-0.17493128776550293
			]
		},
		{
			"children":[
				1
			],
			"name":"RootNode"
		},
		{
			"children":[
				2
			],
			"name":"f9b727a2187c415eb3f64c895300167a.fbx",
			"rotation":[
				1,
				0,
				0,
				0
			]
		},
		{
			"children":[
				3
			],
			"name":"Sketchfab_model",
			"rotation":[
				0.5,
				0.5,
				-0.5,
				0.5
			],
			"translation":[
				-0.07399559020996094,
				-0.518738865852356,
				10.86844539642334
			]
		}
	],
	"materials":[
		{
			"doubleSided":true,
			"name":"Medical_Hand",
			"normalTexture":{
				"index":0
			},
			"occlusionTexture":{
				"index":1
			},
			"pbrMetallicRoughness":{
				"baseColorTexture":{
					"index":2
				},
				"metallicRoughnessTexture":{
					"index":1
				}
			}
		}
	],
	"meshes":[
		{
			"name":"Hand_Med_Medical_Hand_0",
			"primitives":[
				{
					"attributes":{
						"POSITION":0,
						"NORMAL":1,
						"TEXCOORD_0":2
					},
					"indices":3,
					"material":0
				}
			]
		}
	],
	"textures":[
		{
			"sampler":0,
			"source":0
		},
		{
			"sampler":0,
			"source":1
		},
		{
			"sampler":0,
			"source":2
		}
	],
	"images":[
		{
			"mimeType":"image/png",
			"name":"Medical_Hand_normal",
			"uri":"Medical_Hand_normal.png"
		},
		{
			"mimeType":"image/png",
			"name":"Medical_Hand_metallicRoughness",
			"uri":"Medical_Hand_metallicRoughness.png"
		},
		{
			"mimeType":"image/jpeg",
			"name":"Medical_Hand_baseColor",
			"uri":"Medical_Hand_baseColor.jpg"
		}
	],
	"accessors":[
		{
			"bufferView":0,
			"componentType":5126,
			"count":3241,
			"max":[
				23.22170066833496,
				9.534700393676758,
				4.412899971008301
			],
			"min":[
				-2.052799940109253,
				-6.169400215148926,
				-3.544300079345703
			],
			"type":"VEC3"
		},
		{
			"bufferView":1,
			"componentType":5126,
			"count":3241,
			"type":"VEC3"
		},
		{
			"bufferView":2,
			"componentType":5126,
			"count":3241,
			"type":"VEC2"
		},
		{
			"bufferView":3,
			"componentType":5123,
			"count":16956,
			"type":"SCALAR"
		}
	],
	"bufferViews":[
		{
			"buffer":0,
			"byteLength":38892,
			"byteOffset":0,
			"target":34962
		},
		{
			"buffer":0,
			"byteLength":38892,
			"byteOffset":38892,
			"target":34962
		},
		{
			"buffer":0,
			"byteLength":25928,
			"byteOffset":77784,
			"target":34962
		},
		{
			"buffer":0,
			"byteLength":33912,
			"byteOffset":103712,
			"target":34963
		}
	],
	"samplers":[
		{
			"magFilter":9729,
			"minFilter":9987
		}
	],
	"buffers":[
		{
			"byteLength":137624,
			"uri":"hand.bin"
		}
	]
}
