{
  "accessors": [
    {
      "bufferView": 2,
      "componentType": 5126,
      "count": 3241,
      "max": [
        23.22170066833496,
        9.534700393676758,
        4.412899971008301
      ],
      "min": [
        -2.052799940109253,
        -6.169400215148926,
        -3.544300079345703
      ],
      "type": "VEC3"
    },
    {
      "bufferView": 2,
      "byteOffset": 38892,
      "componentType": 5126,
      "count": 3241,
      "max": [
        0.9973670244216919,
        0.9997065663337708,
        0.9988401532173157
      ],
      "min": [
        -1.0,
        -0.9999677538871765,
        -0.9999827146530151
      ],
      "type": "VEC3"
    },
    {
      "bufferView": 3,
      "componentType": 5126,
      "count": 3241,
      "max": [
        0.9986521005630493,
        0.9999692440032959,
        0.9995629787445068,
        1.0
      ],
      "min": [
        -0.9999817609786987,
        -0.9998552799224854,
        -0.9998094439506531,
        1.0
      ],
      "type": "VEC4"
    },
    {
      "bufferView": 1,
      "componentType": 5126,
      "count": 3241,
      "max": [
        0.9507478475570679,
        0.985893964767456
      ],
      "min": [
        0.028757203370332718,
        0.0050833988934755325
      ],
      "type": "VEC2"
    },
    {
      "bufferView": 0,
      "componentType": 5125,
      "count": 16956,
      "type": "SCALAR"
    }
  ],
  "asset": {
    "extras": {
      "author": "tinderboxh (https://sketchfab.com/tinderboxh)",
      "license": "CC-BY-4.0 (http://creativecommons.org/licenses/by/4.0/)",
      "source": "https://sketchfab.com/3d-models/vr-hand-material-7d911372f2c24290b275ca3b321c7abc",
      "title": "VR Hand_Material"
    },
    "generator": "Sketchfab-12.66.0",
    "version": "2.0"
  },
  "bufferViews": [
    {
      "buffer": 0,
      "byteLength": 67824,
      "name": "floatBufferViews",
      "target": 34963
    },
    {
      "buffer": 0,
      "byteLength": 25928,
      "byteOffset": 67824,
      "byteStride": 8,
      "name": "floatBufferViews",
      "target": 34962
    },
    {
      "buffer": 0,
      "byteLength": 77784,
      "byteOffset": 93752,
      "byteStride": 12,
      "name": "floatBufferViews",
      "target": 34962
    },
    {
      "buffer": 0,
      "byteLength": 51856,
      "byteOffset": 171536,
      "byteStride": 16,
      "name": "floatBufferViews",
      "target": 34962
    }
  ],
  "buffers": [
    {
      "byteLength": 223392,
      "uri": "scene.bin"
    }
  ],
  "images": [
    {
      "uri": "textures/Medical_Hand_baseColor.jpeg"
    },
    {
      "uri": "textures/Medical_Hand_metallicRoughness.png"
    },
    {
      "uri": "textures/Medical_Hand_normal.png"
    }
  ],
  "materials": [
    {
      "doubleSided": true,
      "name": "Medical_Hand",
      "normalTexture": {
        "index": 2
      },
      "occlusionTexture": {
        "index": 1
      },
      "pbrMetallicRoughness": {
        "baseColorTexture": {
          "index": 0
        },
        "metallicRoughnessTexture": {
          "index": 1
        }
      }
    }
  ],
  "meshes": [
    {
      "name": "Hand_Med_Medical_Hand_0",
      "primitives": [
        {
          "attributes": {
            "NORMAL": 1,
            "POSITION": 0,
            "TANGENT": 2,
            "TEXCOORD_0": 3
          },
          "indices": 4,
          "material": 0,
          "mode": 4
        }
      ]
    }
  ],
  "nodes": [
    {
      "children": [
        1
      ],
      "matrix": [
        -2.220446049250313e-16,
        1.722546417830516e-16,
        -1.0,
        0.0,
        1.0,
        -1.110223024625156e-16,
        -2.220446049250313e-16,
        0.0,
        -1.1102230246251565e-16,
        -1.0,
        -1.722546417830516e-16,
        0.0,
        12.26710319519043,
        -0.5187388658523587,
        12.26710319519043,
        1.0
      ],
      "name": "Sketchfab_model"
    },
    {
      "children": [
        2
      ],
      "matrix": [
        1.0,
        0.0,
        0.0,
        0.0,
        0.0,
        -1.0,
        0.0,
        0.0,
        0.0,
        0.0,
        -1.0,
        0.0,
        0.0,
        0.0,
        0.0,
        1.0
      ],
      "name": "f9b727a2187c415eb3f64c895300167a.fbx"
    },
    {
      "children": [
        3
      ],
      "name": "RootNode"
    },
    {
      "children": [
        4
      ],
      "matrix": [
        1.0,
        0.0,
        0.0,
        0.0,
        0.0,
        1.0,
        0.0,
        0.0,
        0.0,
        0.0,
        1.0,
        0.0,
        0.0,
        0.0,
        -0.17493128776550293,
        1.0
      ],
      "name": "Hand_Med"
    },
    {
      "mesh": 0,
      "name": "Hand_Med_Medical_Hand_0"
    }
  ],
  "samplers": [
    {
      "magFilter": 9729,
      "minFilter": 9987,
      "wrapS": 10497,
      "wrapT": 10497
    }
  ],
  "scene": 0,
  "scenes": [
    {
      "name": "Sketchfab_Scene",
      "nodes": [
        0
      ]
    }
  ],
  "textures": [
    {
      "sampler": 0,
      "source": 0
    },
    {
      "sampler": 0,
      "source": 1
    },
    {
      "sampler": 0,
      "source": 2
    }
  ]
}
